<svg width="1092" height="7" viewBox="0 0 1092 7" fill="none" xmlns="http://www.w3.org/2000/svg">
<path d="M1 1.16344C3.05444 1.90549 9.90438 1.78142 12.4987 1.54716C17.9939 1.05095 24.7737 0.479886 30.1078 1.36658C42.0572 3.35295 53.6265 0.879963 65.4927 1.77288C73.9184 2.40691 83.8388 2.78862 92.4341 2.78862C96.189 2.78862 100.006 2.95468 103.544 2.35975C106.91 1.79375 111.5 0.809106 115.209 0.757139C125.707 0.610048 135.356 2.29515 145.761 2.38233C169.827 2.58395 193.929 4.00751 217.975 4.00751C229.991 4.00751 241.902 4.6637 253.971 4.39124C267.097 4.09494 280.148 5.02989 293.3 4.79753C306.55 4.56344 319.871 2.88221 333.073 3.21749C347.548 3.58509 362.689 3.98607 376.957 5.00068C404.649 6.96984 430.332 4.25905 457.504 2.87891C478.74 1.80025 500.053 4.55617 521.163 4.82011C544.085 5.1067 566.536 5.94995 589.489 5.20383C598.892 4.89815 608.282 4.37827 617.708 4.03009C626.592 3.70192 634.575 3.78133 643.427 2.99177C652.316 2.19892 659.477 2.35208 668.035 2.38233C687.362 2.45062 707.383 2.93924 726.695 2.29204C741.213 1.8055 757.391 1.81698 771.913 2.47261C783.708 3.00516 795.53 2.75143 807.353 3.28521C831.477 4.37438 855.272 5.62885 879.456 4.84268C893.474 4.38699 907.836 4.72203 921.896 4.43638C937.359 4.1222 952.866 3.91614 968.335 3.62379C979.834 3.40645 991.38 3.19492 1002.89 3.19492C1016.36 3.19492 1029.86 1.98629 1043.33 2.47261C1059.52 3.05755 1074.76 1.97603 1090.88 1.97603" stroke="black" stroke-opacity="0.25" stroke-linecap="round"/>
</svg>
